<svg xmlns="http://www.w3.org/2000/svg" viewBox="0 0 96 96" width="96px" height="96px" baseProfile="basic">
  <path fill="#44d62c" d="M74.102,82.001c-0.05,0-0.101,0-0.152-0.001L22,82c-2.08,0-4.023-0.8-5.473-2.252 c-1.63-1.634-2.525-3.991-2.519-6.635C14.073,44.444,14.001,22.231,14,22.01c0-4.411,3.586-8,7.993-8.01 c22.155-0.051,37.795-0.067,46.489-0.054c4.042,0.007,8.152,0.388,10.823,3.1c2.54,2.58,2.819,6.353,2.778,9.353l-0.013,0.955 c-0.105,7.64-0.28,20.427-0.07,38.612c0.012,1.056-0.523,1.991-1.341,2.535c0.705,0.468,1.208,1.229,1.319,2.134 c0.436,3.548-0.41,6.894-2.261,8.952C78.294,81.167,76.355,82.001,74.102,82.001z M61.438,19.941c-9.133,0-22.342,0.02-39.431,0.059 C20.9,20.002,20,20.9,20,22c0,0.211,0.073,22.439,0.008,51.126c-0.002,1.039,0.27,1.885,0.767,2.383C21.1,75.835,21.512,76,22,76h52 c0.74,0.021,1.061-0.209,1.257-0.427c0.665-0.739,0.979-2.469,0.766-4.208c-0.143-1.166,0.403-2.257,1.318-2.866 c-0.798-0.531-1.329-1.435-1.341-2.465c-0.21-18.261-0.034-31.096,0.071-38.764l0.013-0.954c0.036-2.649-0.309-4.305-1.054-5.062 c-0.874-0.887-2.958-1.303-6.559-1.31C66.488,19.943,64.141,19.941,61.438,19.941z" opacity=".3" />
  <path fill="#44d62c" d="M74.101,81.001c-0.045,0-0.089,0-0.134-0.001L22,81c-1.812,0-3.504-0.696-4.765-1.959 c-1.441-1.445-2.232-3.549-2.227-5.926C15.073,44.443,15.001,22.228,15,22.007c0-3.858,3.138-6.998,6.996-7.007 c22.153-0.051,37.792-0.07,46.484-0.054c5.232,0.009,8.162,0.821,10.112,2.801c1.78,1.807,2.548,4.471,2.492,8.638l-0.013,0.954 c-0.105,7.645-0.28,20.439-0.07,38.638c0.013,1.104-0.873,2.01-1.977,2.023c-0.008,0-0.016,0-0.023,0c-1.094,0-1.987-0.88-2-1.977 c-0.21-18.249-0.034-31.075,0.071-38.738l0.013-0.954c0.041-2.97-0.386-4.806-1.341-5.776c-1.088-1.105-3.331-1.601-7.269-1.608 C59.787,18.932,44.152,18.949,22.004,19C20.348,19.004,19,20.35,19,22c0.001,0.214,0.073,22.44,0.008,51.124 c-0.003,1.307,0.373,2.405,1.059,3.092C20.579,76.729,21.247,77,22,77h52c0.888,0.011,1.522-0.227,2-0.758 c0.871-0.968,1.27-2.93,1.016-4.999c-0.135-1.096,0.645-2.094,1.741-2.229c1.098-0.135,2.095,0.645,2.229,1.741 c0.401,3.265-0.351,6.315-2.011,8.161C77.746,80.282,76.063,81.001,74.101,81.001z" opacity=".3" />
  <path fill="#0fd2ff" d="M48,72H32.284C28.643,72,26,69.296,26,65.572V30.868C26,28.303,26.863,24,32.644,24 H44.42c4.158,0,6.641,2.617,6.641,7c0,5.336-0.021,14.744-0.039,22.298C51.01,58.361,51,62.59,51,64.199 c0,0.981-0.471,1.853-1.2,2.4c0.729,0.547,1.2,1.419,1.2,2.4C51,70.657,49.657,72,48,72z M32.078,65.991 c0.033,0,0.104,0.009,0.206,0.009h13.316C45.223,65.499,45,64.875,45,64.199c0-1.611,0.01-5.846,0.021-10.915 c0.018-7.55,0.039-16.952,0.039-22.285c0-0.54-0.069-0.826-0.111-0.952C44.86,30.027,44.693,30,44.42,30H32.644 c-0.269,0-0.45,0.009-0.573,0.02C32.037,30.183,32,30.453,32,30.868v34.704c0,0.215,0.038,0.355,0.064,0.42 C32.067,65.992,32.072,65.991,32.078,65.991z" opacity=".3" />
  <path fill="#0fd2ff" d="M48,71H32.284C29.173,71,27,68.768,27,65.572V30.868C27,26.974,28.899,25,32.644,25 H44.42c3.584,0,5.641,2.187,5.641,6c0,5.335-0.021,14.743-0.039,22.296C50.01,58.36,50,62.59,50,64.199c0,1.104-0.896,2-2,2 s-2-0.896-2-2c0-1.611,0.01-5.844,0.021-10.912c0.018-7.551,0.039-16.954,0.039-22.287c0-1.907-0.593-2-1.641-2H32.644 C31.315,29,31,29,31,30.868v34.704C31,67,31.867,67,32.284,67H48c1.104,0,2,0.896,2,2S49.104,71,48,71z" opacity=".3" />
  <path fill="#0fd2ff" d="M58.998,50.931c-2.336,0-4.801-0.592-7.288-1.777c-1.496-0.713-2.13-2.503-1.417-3.999 s2.502-2.13,3.999-1.417c3.194,1.522,6.047,1.591,8.252,0.199c2.047-1.292,3.369-3.819,3.369-6.437c0-2.616-1.357-5.152-3.458-6.461 c-2.219-1.383-5.032-1.312-8.133,0.208c-1.488,0.729-3.285,0.115-4.014-1.373c-0.729-1.487-0.115-3.285,1.373-4.014 c4.984-2.444,9.938-2.413,13.949,0.086c3.875,2.415,6.283,6.842,6.284,11.552c0.001,4.699-2.361,9.109-6.166,11.511 C63.718,50.291,61.428,50.931,58.998,50.931z" opacity=".3" />
  <path fill="#0fd2ff" d="M58.994,49.928c-2.189,0-4.509-0.559-6.854-1.677c-0.997-0.475-1.42-1.668-0.945-2.666 c0.476-0.998,1.669-1.419,2.666-0.945c3.519,1.677,6.706,1.726,9.216,0.142c2.331-1.471,3.835-4.33,3.835-7.282 c0-2.954-1.542-5.823-3.928-7.31c-2.529-1.575-5.676-1.521-9.103,0.16c-0.993,0.485-2.19,0.076-2.676-0.916s-0.077-2.19,0.916-2.676 c4.662-2.286,9.271-2.273,12.979,0.038c3.584,2.234,5.812,6.335,5.813,10.703c0.001,4.359-2.183,8.445-5.7,10.666 C63.35,49.34,61.24,49.928,58.994,49.928z" opacity=".3" />
  <path fill="#0fd2ff" d="M58.612,72.019c-2.399,0-4.852-0.646-7.132-1.987c-1.429-0.84-1.906-2.678-1.066-4.106 c0.84-1.429,2.679-1.907,4.106-1.066c4.186,2.461,8.169,0.677,10.099-2.021c1.789-2.501,2.275-6.606-0.883-9.708 c-1.182-1.161-1.199-3.061-0.038-4.242c1.161-1.184,3.06-1.199,4.242-0.038c4.862,4.776,5.503,11.963,1.559,17.479 C66.845,70.039,62.811,72.019,58.612,72.019z" opacity=".3" />
  <path fill="#0fd2ff" d="M58.549,71.032c-2.118,0-4.352-0.563-6.563-1.862c-0.952-0.56-1.27-1.785-0.71-2.738 c0.559-0.952,1.785-1.27,2.738-0.71c4.725,2.778,9.232,0.754,11.418-2.302c2.028-2.836,2.582-7.489-0.996-11.003 c-0.788-0.774-0.799-2.04-0.025-2.828c0.774-0.789,2.04-0.799,2.828-0.025c4.503,4.423,5.098,11.078,1.446,16.184 C66.484,68.824,62.743,71.032,58.549,71.032z" opacity=".3" />
  <path fill="#44d62c" d="M74.099,80.001c-0.039,0-0.077,0-0.116-0.001H22c-1.544,0-2.985-0.591-4.057-1.665 c-1.252-1.255-1.94-3.108-1.935-5.218C16.073,44.442,16.001,22.225,16,22.003c0-3.304,2.69-5.996,5.998-6.003 c22.152-0.05,37.791-0.068,46.481-0.054c4.935,0.009,7.659,0.734,9.401,2.503c1.577,1.601,2.256,4.044,2.204,7.922l-0.013,0.954 c-0.105,7.649-0.28,20.452-0.07,38.663c0.006,0.552-0.436,1.005-0.988,1.012c-0.52-0.002-1.005-0.436-1.012-0.988 c-0.21-18.236-0.034-31.055,0.071-38.713l0.013-0.954c0.045-3.3-0.458-5.302-1.629-6.492c-1.309-1.329-3.695-1.899-7.98-1.906 C59.789,17.93,44.153,17.949,22.002,18C19.795,18.005,18,19.799,18,22c0.001,0.218,0.073,22.44,0.008,51.122 c-0.003,1.574,0.476,2.923,1.351,3.8C20.063,77.627,20.976,78,22,78h52c1.175,0.026,2.067-0.337,2.744-1.089 c1.281-1.424,1.493-3.924,1.264-5.789c-0.067-0.548,0.323-1.047,0.871-1.115c0.547-0.063,1.047,0.322,1.115,0.871 c0.366,2.981-0.293,5.737-1.763,7.371C77.197,79.396,75.771,80.001,74.099,80.001z" />
  <path fill="#0fd2ff" d="M48,70H32.284C29.722,70,28,68.22,28,65.572V30.868C28,26,31.374,26,32.644,26H44.42 c2.117,0,4.641,0.868,4.641,5c0,5.335-0.021,14.741-0.039,22.294C49.01,58.358,49,62.589,49,64.199c0,0.552-0.448,1-1,1 s-1-0.448-1-1c0-1.61,0.01-5.843,0.021-10.91c0.018-7.551,0.039-16.955,0.039-22.289c0-2.49-1.056-3-2.641-3H32.644 C31.284,28,30,28,30,30.868v34.704C30,66.302,30.223,68,32.284,68H48c0.552,0,1,0.448,1,1S48.552,70,48,70z" />
  <path fill="#0fd2ff" d="M58.991,48.925c-2.043,0-4.215-0.525-6.421-1.577c-0.499-0.238-0.71-0.834-0.473-1.333 c0.237-0.499,0.835-0.709,1.333-0.473c4.858,2.315,8.217,1.325,10.181,0.084c2.653-1.675,4.301-4.79,4.301-8.128 c0-3.291-1.728-6.493-4.399-8.158c-2.797-1.744-6.375-1.704-10.072,0.11c-0.498,0.242-1.095,0.037-1.338-0.458 c-0.243-0.496-0.038-1.095,0.458-1.338c4.342-2.128,8.607-2.132,12.01-0.012c3.294,2.053,5.341,5.829,5.342,9.855 c0.001,4.018-2.004,7.781-5.233,9.819C62.982,48.39,61.053,48.925,58.991,48.925z" />
  <path fill="#0fd2ff" d="M58.545,70.025c-1.953,0-4.013-0.519-6.052-1.717c-0.476-0.28-0.635-0.893-0.355-1.369 c0.28-0.477,0.894-0.634,1.369-0.355c5.268,3.096,10.296,0.832,12.738-2.582c2.268-3.171,2.889-8.373-1.108-12.299 c-0.394-0.387-0.4-1.02-0.013-1.414c0.387-0.394,1.02-0.4,1.414-0.013c4.144,4.07,4.692,10.192,1.333,14.889 C65.848,67.995,62.406,70.025,58.545,70.025z" />
</svg>